<svg width="555" height="555" viewBox="0 0 555 555" fill="none" xmlns="http://www.w3.org/2000/svg">
<path d="M364.349 76.4232C367.817 75.7665 382.196 75.8834 385.329 76.7092C419.581 80.7806 447.432 103.774 458.98 136.228C471.342 170.965 462.75 216.144 442.775 246.498C431.312 263.917 413.191 283.927 399.119 299.915L343.433 363.752L316.266 395.323C307.902 404.95 299.157 414.732 290.928 424.455L266.289 453.215C260.081 460.484 253.863 467.592 247.368 474.658C242.077 480.417 236.557 480.817 229.409 478.811C223.604 477.182 219.215 471.984 218.14 466.09C217.403 462.194 218.187 458.162 220.33 454.824C223.585 449.781 232.632 440.17 236.749 435.496L267.506 400.676C301.124 362.557 334.522 324.249 367.704 285.75L388.867 261.241C396.75 252.154 402.635 245.779 409.408 235.763C423.167 215.323 429.898 196.574 430.137 171.902C430.523 131.858 401.187 101.045 359.99 109.6C350.482 111.575 338.517 117.261 331.291 123.947C319.267 135.071 308.319 148.111 297.456 160.459L250.692 213.077C225.319 241.226 200.199 269.603 175.336 298.202L158.729 317.02C151.636 324.906 146.058 331.095 139.823 340.043C123.793 363.039 117.312 398.079 144.061 416.166C158.651 426.033 181.579 422.052 194.211 410.317C200.124 404.826 205.556 398.653 210.988 392.503L227.796 373.596L287.631 306.522L325.377 264.236L338.19 250.075C345.152 242.324 353.595 233.479 350.724 222.131C347.208 208.241 329.984 204.001 318.543 211.014C311.888 215.094 308.215 220.135 303.107 225.646C296.616 232.65 290.64 239.864 284.434 247.083C266.7 267.696 248.743 288.113 230.564 308.337C222.078 317.896 213.629 327.861 204.854 336.987C190.771 351.631 166.65 333.124 179.171 316.31C180.983 313.876 182.932 311.703 184.921 309.447L195.814 297.197L240.24 247.12C243.405 243.539 246.351 239.708 249.492 236.103C259.102 224.966 268.878 213.973 278.817 203.129C283.563 197.879 288.672 191.243 293.762 186.689C321.983 161.452 368.042 170.393 382.706 205.872C387.856 218.33 388.008 229.83 383.145 242.314C381.393 246.813 378.945 251.953 376.06 255.771C365.174 270.168 352.73 283.392 340.838 296.943L267.857 379.028C256.888 391.182 246.374 403.922 235.283 416.009C228.725 423.106 222.398 430.972 215.02 437.223C188.313 459.85 148.639 461.797 119.946 441.582C80.1851 413.574 83.3058 358.686 110.095 322.764C115.582 315.408 121.041 309.142 127.133 302.293L144.58 282.574L206.812 212.637C230.017 186.397 253.418 160.33 277.012 134.44C288.106 122.334 298.295 108.626 311.528 98.7262C324.284 89.1812 338.199 81.5421 353.877 78.1345C357.184 77.4158 360.965 76.9754 364.349 76.4232Z" fill="white"/>
</svg>
